<?xml version="1.0" standalone="no"?>
<!DOCTYPE svg PUBLIC "-//W3C//DTD SVG 1.1//EN" "http://www.w3.org/Graphics/SVG/1.1/DTD/svg11.dtd" >
<svg xmlns="http://www.w3.org/2000/svg">
<metadata>
Created by FontPrep 20130207 at Wed Jun 17 15:57:49 2015
 By Matt
Copyright 1992, 2002 Adobe Systems Incorporated. All Rights Reserved. Copyright 1992, 2002 The Monotype Corporation. All rights reserved.
</metadata>
<defs>
<font id="03ecd39c90b717badec14160b8aa96aa" horiz-adv-x='1024' >
  <font-face 
    font-family="GrotesqueMTStd"
    font-weight="400"
    font-stretch="normal"
    units-per-em="2048"
    panose-1="2 11 5 4 2 2 2 2 2 4"
    ascent="1477"
    descent="-571"
    x-height="1012"
    cap-height="1477"
    bbox="-322 -512 2099 1906"
    underline-thickness="102"
    underline-position="-102"
    unicode-range="U+0020-FB02"
  />
<missing-glyph horiz-adv-x="1024" 
d="M102 1239v-1044l349 522zM164 102h696l-348 523zM573 717l349 -522v1044zM512 809l348 522h-696zM0 0v1434h1024v-1434h-1024z" />
    <glyph glyph-name="f_i" unicode="fi" 
d="M881 0v1012h172v-1012h-172zM82 1012h162q2 170 20 246t72 133q106 109 313 108q100 -1 175 -25t114 -55t67 -81q27 -50 33 -78l15 -70h-172q-27 176 -222 176q-125 0 -184 -61t-59 -195v-98h250v-144h-250v-868h-172v868h-162v144z" />
    <glyph glyph-name="f_l" unicode="fl" 
d="M823 1477h228v-1477h-172v1174q-1 88 -59 140t-158 52q-244 0 -244 -217v-137h250v-144h-250v-868h-172v868h-162v144h162v78q0 217 96 313t313 96q70 0 116 -11t52 -11z" />
    <glyph glyph-name=".notdef" horiz-adv-x="1024" 
d="M102 1239v-1044l349 522zM164 102h696l-348 523zM573 717l349 -522v1044zM512 809l348 522h-696zM0 0v1434h1024v-1434h-1024z" />
    <glyph glyph-name=".null" horiz-adv-x="0" 
 />
    <glyph glyph-name="nonmarkingreturn" horiz-adv-x="681" 
 />
    <glyph glyph-name="space" unicode=" " horiz-adv-x="491" 
 />
    <glyph glyph-name="exclam" unicode="!" horiz-adv-x="555" 
d="M176 0v258h199v-258h-199zM205 424l-25 1059h201l-35 -1059h-141z" />
    <glyph glyph-name="quotedbl" unicode="&#x22;" horiz-adv-x="980" 
d="M616 1477h201v-246l-61 -285h-78l-62 285v246zM164 1477h201v-246l-62 -285h-78l-61 285v246z" />
    <glyph glyph-name="numbersign" unicode="#" horiz-adv-x="1368" 
d="M922 844h-402l-71 -348h401zM86 844v143h320l86 397h143l-86 -397h401l84 397h144l-86 -397h190v-143h-217l-74 -350h291v-144h-317l-84 -395h-146l86 395h-403l-82 -395h-143l81 395h-188v144h219l72 350h-291z" />
    <glyph glyph-name="dollar" unicode="$" 
d="M553 1481h137v-86q182 -31 278 -113t111 -268h-182q-12 102 -57 152t-150 71v-440q90 -43 144 -73q178 -98 234 -211q36 -71 36 -171t-58 -188t-146 -130t-210 -59v-198h-137v200q-121 14 -195 45t-130 90q-56 60 -78 114t-37 159h192q23 -219 246 -252v524
q-218 88 -298 175q-32 36 -56 92q-25 56 -25 122q0 223 207 318q63 29 174 41v86zM690 588v-469q106 14 167 72q61 59 61 141t-50 136t-178 120zM350 1074q0 -69 43 -116t160 -104v387q-95 -10 -149 -54t-54 -113z" />
    <glyph glyph-name="percent" unicode="%" horiz-adv-x="1748" 
d="M438 -86l770 1604h103l-766 -1604h-107zM436 1397q-63 0 -98 -67t-35 -189q0 -289 131 -289t131 272t-129 273zM435 1513q128 -1 208 -109t80 -279t-80 -281t-208 -109t-209 107t-81 281t81 283t209 107zM1314 578q-64 0 -99 -65q-36 -65 -35 -183q0 -299 133 -299
q63 1 99 71t36 200t-35 203t-99 73zM1026 308q0 176 81 280q81 106 207 106t208 -114t82 -279t-82 -275t-209 -110t-207 108t-80 284z" />
    <glyph glyph-name="ampersand" unicode="&#x26;" horiz-adv-x="1323" 
d="M539 -29q-174 0 -299 124t-125 298q0 76 28 145q29 70 66 112q88 101 285 192q-66 164 -66 280t70 203q70 86 177 86t177 -79q70 -78 70 -196t-88 -225q-53 -61 -140 -112q139 -260 240 -410q47 80 67 139t35 158l129 -82q-35 -197 -139 -336q106 -125 193 -125
q20 1 57 7l16 -160q-66 -14 -122 -14t-116 34q-60 35 -139 125q-164 -164 -376 -164zM279 395q0 -111 85 -191q84 -80 208 -79q124 0 255 123q-117 168 -221 362l-55 103q-208 -117 -251 -210q-21 -49 -21 -108zM678 1266q-45 0 -76 -35t-31 -103t70 -215q139 90 139 213
q0 59 -28 100q-29 40 -74 40z" />
    <glyph glyph-name="quotesingle" unicode="'" horiz-adv-x="555" 
d="M178 1477h201v-246l-62 -285h-77l-62 285v246z" />
    <glyph glyph-name="parenleft" unicode="(" horiz-adv-x="768" 
d="M616 -207v-186q-143 92 -221 186q-244 297 -243 787q0 276 104 534t362 414v-185q-70 -67 -102 -113t-65 -122q-107 -238 -107 -543t109 -547q33 -74 64 -116t99 -109z" />
    <glyph glyph-name="parenright" unicode=")" horiz-adv-x="768" 
d="M152 1341v187q143 -92 221 -187q244 -297 243 -786q0 -277 -104 -535t-362 -413v184q70 68 102 114q33 46 65 122q107 239 107 543t-109 546q-33 74 -64 116t-99 109z" />
    <glyph glyph-name="asterisk" unicode="*" horiz-adv-x="980" 
d="M236 1427l143 86l108 -294l113 292l143 -81l-213 -242l330 57v-168l-330 60l215 -258l-147 -82l-113 309l-108 -313l-146 86l209 258l-317 -58v164l317 -53z" />
    <glyph glyph-name="plus" unicode="+" horiz-adv-x="1366" 
d="M135 588v157h467v469h158v-469h471v-157h-471v-467h-158v467h-467z" />
    <glyph glyph-name="comma" unicode="," horiz-adv-x="555" 
d="M180 0v262h201v-272q0 -213 -166 -318l-39 80q84 96 80 248h-76z" />
    <glyph glyph-name="hyphen" unicode="-" horiz-adv-x="768" 
d="M102 424v168h566v-168h-566z" />
    <glyph glyph-name="period" unicode="." horiz-adv-x="555" 
d="M178 0v262h201v-262h-201z" />
    <glyph glyph-name="slash" unicode="/" horiz-adv-x="661" 
d="M72 -348l381 1843h139l-381 -1843h-139z" />
    <glyph glyph-name="zero" unicode="0" horiz-adv-x="980" 
d="M502 1415q112 0 211 -75q61 -46 107 -120t78 -203q32 -130 32 -289q0 -425 -150 -612q-98 -122 -238 -146q-24 -3 -50 -3q-182 0 -299 166q-137 191 -140 582q0 305 116 503t333 197zM737 733q0 253 -62 395t-179 142t-185 -148q-67 -148 -67 -422t66 -431t179 -156
q248 0 248 620z" />
    <glyph glyph-name="one" unicode="1" horiz-adv-x="980" 
d="M655 1413v-1413h-184v1118q-154 -125 -289 -182v168q170 80 350 309h123z" />
    <glyph glyph-name="two" unicode="2" horiz-adv-x="980" 
d="M94 1024q0 176 115 285t297 109t300 -116q118 -114 118 -300t-113 -315q-59 -67 -104 -103t-171 -124q-126 -90 -179 -143q-52 -53 -103 -141h653v-176h-850q7 149 73 273q26 47 80 105t93 91t139 113t150 130q51 48 93 123t42 181t-61 178q-62 72 -170 72t-173 -67
t-65 -163t59 -213l-137 -75q-86 147 -86 276z" />
    <glyph glyph-name="three" unicode="3" horiz-adv-x="980" 
d="M507 1419q163 0 269 -103t106 -249t-76 -216q-77 -69 -155 -101q274 -88 275 -357q0 -182 -129 -302t-317 -120q-188 -1 -306 101q-117 102 -117 258q0 59 37 182l150 -66q-18 -61 -19 -98q0 -106 68 -168q69 -62 181 -63q112 1 180 75t67 178q0 171 -99 251
q-83 63 -282 63v145q92 -13 216 21q54 14 93 64t39 143t-57 151t-149 60q-92 0 -149 -44q-58 -44 -59 -106q1 -26 13 -69l-154 -68q-25 80 -24 121q0 133 117 225q118 92 281 92z" />
    <glyph glyph-name="four" unicode="4" horiz-adv-x="980" 
d="M748 1415v-936h167v-153h-167v-326h-181v326h-501v235l526 854h156zM567 479v621l-383 -621h383z" />
    <glyph glyph-name="five" unicode="5" horiz-adv-x="980" 
d="M829 1389v-177h-522l-26 -354q117 94 247 94q168 0 274 -129t105 -349q0 -220 -121 -364t-306 -144t-287 100q-102 102 -119 284l162 53q14 -153 68 -217q54 -63 165 -63t179 94t67 251q1 157 -61 242t-173 85q-74 0 -124 -39t-95 -131l-145 51l55 713h657z" />
    <glyph glyph-name="six" unicode="6" horiz-adv-x="980" 
d="M545 938q166 0 270 -127q105 -127 105 -349t-110 -359q-110 -138 -302 -138q-158 0 -270 113q-96 94 -136 224q-39 130 -39 360q0 756 461 755q80 1 142 -23t98 -52q75 -60 125 -228l-170 -49q-55 193 -210 193t-203 -160q-36 -117 -44 -305q117 145 283 145zM501 113
q103 0 164 92q60 92 60 250q0 159 -55 247t-158 88q-104 0 -170 -88t-66 -242t61 -250q61 -97 164 -97z" />
    <glyph glyph-name="seven" unicode="7" horiz-adv-x="980" 
d="M78 1237v162h827v-152q-171 -294 -289 -718q-51 -185 -63 -278t-27 -251h-194q24 190 46 292t66 243q111 358 293 702h-659z" />
    <glyph glyph-name="eight" unicode="8" horiz-adv-x="980" 
d="M936 374q0 -186 -128 -296t-322 -109q-194 0 -317 114q-122 114 -122 292t139 287q61 49 176 77q-189 77 -244 193q-28 59 -28 135q0 152 117 252t290 100t289 -100t115 -249q0 -149 -113 -235q-78 -59 -165 -96q121 -29 180 -75q133 -104 133 -290zM492 662
q-108 0 -177 -78t-69 -200t66 -199t180 -77q112 0 180 78q68 76 68 200t-70 200t-178 76zM496 1274q-92 0 -154 -66t-63 -164q0 -98 60 -164t152 -67q92 0 154 65q61 66 61 166t-58 165q-60 65 -152 65z" />
    <glyph glyph-name="nine" unicode="9" horiz-adv-x="980" 
d="M448 135q122 0 175 84q52 85 64 173t18 177q-139 -129 -290 -129t-253 138t-102 351q0 214 118 350q119 136 301 136q115 0 217 -73q64 -44 112 -116q114 -169 114 -536q0 -423 -185 -610q-111 -113 -303 -113q-267 0 -354 295l178 72q33 -113 78 -156q44 -43 112 -43z
M475 1270q-97 0 -157 -90t-60 -247t58 -249t160 -92t166 91q62 91 62 240t-65 248q-66 99 -164 99z" />
    <glyph glyph-name="colon" unicode=":" horiz-adv-x="555" 
d="M176 0v260h203v-260h-203zM176 752v262h203v-262h-203z" />
    <glyph glyph-name="semicolon" unicode=";" horiz-adv-x="555" 
d="M180 0v262h203v-227q0 -180 -92 -295q-25 -31 -76 -68l-41 80q50 56 66 106t18 142h-78zM180 756v262h201v-262h-201z" />
    <glyph glyph-name="less" unicode="&#x3c;" horiz-adv-x="1366" 
d="M1229 307v-170l-1094 459v143l1094 459v-170l-881 -360z" />
    <glyph glyph-name="equal" unicode="=" horiz-adv-x="1366" 
d="M135 354v158h1096v-158h-1096zM135 827v158h1096v-158h-1096z" />
    <glyph glyph-name="greater" unicode="&#x3e;" horiz-adv-x="1366" 
d="M135 1026v172l1094 -461v-141l-1094 -459v170l883 359z" />
    <glyph glyph-name="question" unicode="?" horiz-adv-x="1087" 
d="M403 0v256h201v-256h-201zM543 1532q180 0 297 -116t116 -283q0 -113 -59 -213t-192 -215q-76 -66 -98 -112t-21 -142h-160q2 159 35 225t123 150t134 150q44 67 44 160q0 92 -66 160t-159 68q-230 0 -238 -336l-166 88q8 114 34 180t83 123q113 113 293 113z" />
    <glyph glyph-name="at" unicode="@" horiz-adv-x="2078" 
d="M657 434q-1 -129 61 -209t161 -80q127 0 243 151t115 349q0 133 -63 212t-170 79q-133 0 -240 -154t-107 -348zM1104 -430q-473 0 -743 240q-269 240 -269 659q0 277 133 530q74 139 183 247q110 108 284 178t388 69q214 0 384 -72q303 -128 422 -431q51 -130 51 -274
t-57 -286q-104 -257 -338 -380q-104 -54 -204 -54t-143 37q-44 37 -52 131q-143 -166 -302 -166t-263 128t-105 325q0 143 68 288t189 245q122 99 261 99q188 0 303 -184l33 156h180l-159 -742q-14 -69 -14 -91t21 -41q23 -19 57 -19t96 39q158 99 235 284q45 111 45 232
q0 272 -204 451t-513 180q-358 0 -595 -245q-236 -245 -236 -614t228 -571t638 -201q262 0 437 88t261 213h183q-15 -32 -33 -60t-94 -106t-165 -134t-248 -102t-343 -46z" />
    <glyph glyph-name="A" unicode="A" horiz-adv-x="1748" 
d="M139 0l647 1477h181l645 -1477h-205l-158 356h-745l-158 -356h-207zM1169 539l-292 673l-295 -673h587z" />
    <glyph glyph-name="B" unicode="B" horiz-adv-x="1429" 
d="M207 0v1477h588q205 1 333 -95t127 -249q0 -240 -301 -340q106 -27 168 -61t109 -91q76 -90 76 -223q0 -186 -125 -302t-328 -116h-647zM766 705h-356v-533h340q166 0 256 67t90 195t-84 200q-84 71 -246 71zM760 1307h-350v-428h319q311 0 311 223q1 205 -280 205z" />
    <glyph glyph-name="C" unicode="C" horiz-adv-x="1536" 
d="M141 694q-1 365 191 591t502 226q117 -1 215 -33t155 -76q138 -107 187 -259l-156 -133q-56 164 -145 238q-37 30 -102 55t-142 24q-219 0 -353 -165t-135 -431q0 -157 40 -275t94 -177t128 -97q72 -38 120 -45q48 -8 94 -8q182 0 315 129q57 56 108 160l140 -146
q-27 -44 -46 -74t-69 -82t-105 -84t-145 -58t-208 -26t-229 36q-111 35 -181 90t-123 130t-91 168q-59 144 -59 322z" />
    <glyph glyph-name="D" unicode="D" horiz-adv-x="1642" 
d="M244 0v1477h551q301 0 465 -164q221 -215 221 -567t-176 -548q-176 -198 -486 -198h-575zM797 1296h-351v-1114h367q213 0 333 146t120 401q0 311 -160 461q-108 106 -309 106z" />
    <glyph glyph-name="E" unicode="E" 
d="M186 0v1477h920l-55 -174h-664v-453h608v-176h-608v-498h666l59 -176h-926z" />
    <glyph glyph-name="F" unicode="F" 
d="M209 0v1477h921l-79 -183h-639v-452h546v-183h-546v-659h-203z" />
    <glyph glyph-name="G" unicode="G" horiz-adv-x="1642" 
d="M1473 731v-485q-76 -100 -138 -146q-197 -152 -446 -151q-325 0 -521 201t-196 536q0 383 197 605t536 222q162 -1 295 -75t215 -189l-119 -164q-154 244 -396 244t-378 -167q-135 -168 -135 -450t134 -432t372 -151q98 0 179 33q81 34 118 66t80 81v240h-576v182h779z
" />
    <glyph glyph-name="H" unicode="H" horiz-adv-x="1536" 
d="M199 0v1477h202v-627h736v627h202v-1477h-202v670h-736v-670h-202z" />
    <glyph glyph-name="I" unicode="I" horiz-adv-x="661" 
d="M229 0v1477h203v-1477h-203z" />
    <glyph glyph-name="J" unicode="J" horiz-adv-x="1214" 
d="M772 403v1074h203v-1106q0 -195 -113 -308t-307 -112q-106 0 -187 35t-124 83t-76 127t-33 156q0 78 6 158l199 127q-23 -154 -23 -221q1 -133 63 -208t170 -75q108 -1 166 69q56 70 56 201z" />
    <glyph glyph-name="K" unicode="K" horiz-adv-x="1429" 
d="M211 0v1477h203v-676l653 676h262l-522 -537l536 -940h-221l-454 797l-254 -265v-532h-203z" />
    <glyph glyph-name="L" unicode="L" 
d="M205 0v1477h203v-1301h706v-176h-909z" />
    <glyph glyph-name="M" unicode="M" horiz-adv-x="1748" 
d="M1556 1477v-1477h-182v1313l-399 -1313h-199l-401 1313v-1313h-182v1477h315l369 -1203l366 1203h313z" />
    <glyph glyph-name="N" unicode="N" horiz-adv-x="1536" 
d="M205 0v1477h272l651 -1151v1151h203v-1477h-241l-684 1204v-1204h-201z" />
    <glyph glyph-name="O" unicode="O" horiz-adv-x="1642" 
d="M121 734q0 360 194 570q195 208 509 208t507 -213q193 -212 193 -556q0 -193 -54 -341t-133 -230q-78 -82 -180 -135q-166 -86 -338 -86q-322 -1 -510 211t-188 572zM823 1331q-223 0 -355 -163t-132 -435t135 -438t354 -166t352 168q132 168 132 441t-131 433
q-132 160 -355 160z" />
    <glyph glyph-name="P" unicode="P" horiz-adv-x="1429" 
d="M215 0v1477h606q211 0 343 -124t132 -322q0 -197 -139 -315t-375 -118h-364v-598h-203zM745 1298h-329v-524h215q227 0 299 35q95 44 123 117q16 45 16 106q0 266 -324 266z" />
    <glyph glyph-name="Q" unicode="Q" horiz-adv-x="1642" 
d="M121 733q0 170 44 306q79 243 265 359q186 115 387 113q311 0 508 -213t197 -548q0 -220 -74 -394t-209 -270q-53 -39 -139 -78q60 -86 110 -132t109 -75l-158 -73q-73 41 -115 83t-116 146q-6 -2 -49 -6l-56 -2q-326 0 -515 210t-189 574zM1307 745q0 264 -132 424
q-131 160 -353 160t-353 -163t-131 -441q0 -191 90 -369q50 -98 156 -161t256 -68q-85 125 -181 195l175 49q80 -63 174 -207q85 38 177 146q54 64 88 178t34 257z" />
    <glyph glyph-name="R" unicode="R" horiz-adv-x="1429" 
d="M184 0v1477h627q201 0 331 -114t130 -280t-77 -255t-234 -134l368 -694h-217l-356 664h-369v-664h-203zM758 1305h-371v-467h387q139 0 212 60t73 175q0 232 -301 232z" />
    <glyph glyph-name="S" unicode="S" horiz-adv-x="1429" 
d="M752 129q137 0 233 80q96 79 96 191t-84 174t-274 108t-256 74q-66 29 -160 104q-113 119 -112 260q0 176 149 286q150 110 391 110q111 0 200 -27t139 -59t94 -84q44 -53 56 -78t31 -66l-151 -141q-43 140 -129 202q-37 25 -105 47t-151 21q-145 0 -231 -56t-85 -155
q0 -99 129 -152q97 -41 205 -67q109 -27 167 -43t140 -54t132 -85t86 -124q37 -77 36 -173q0 -213 -160 -343t-423 -130q-317 0 -484 194q-59 72 -100 197l170 141q20 -92 51 -149t88 -103q119 -100 312 -100z" />
    <glyph glyph-name="T" unicode="T" horiz-adv-x="1429" 
d="M115 1298v179h1200v-179h-500v-1298h-201v1298h-499z" />
    <glyph glyph-name="U" unicode="U" horiz-adv-x="1536" 
d="M1128 506v971h203v-1002q0 -246 -125 -373q-146 -152 -424 -152t-428 132q-150 131 -149 362v1033h203v-1014q0 -158 95 -242t275 -84q80 0 155 26t118 70q77 78 77 273z" />
    <glyph glyph-name="V" unicode="V" horiz-adv-x="1536" 
d="M688 0l-559 1477h213l436 -1166l420 1166h209l-533 -1477h-186z" />
    <glyph glyph-name="W" unicode="W" horiz-adv-x="2197" 
d="M664 279l329 1198h209l324 -1201l354 1201h197l-432 -1477h-218l-329 1214l-334 -1214h-215l-428 1477h198z" />
    <glyph glyph-name="X" unicode="X" horiz-adv-x="1429" 
d="M586 758l-486 719h244l358 -535l347 535h231l-459 -713l510 -764h-241l-388 580l-368 -580h-236z" />
    <glyph glyph-name="Y" unicode="Y" horiz-adv-x="1429" 
d="M809 0h-203v598l-522 879h227l396 -666l413 666h228l-539 -871v-606z" />
    <glyph glyph-name="Z" unicode="Z" horiz-adv-x="1323" 
d="M180 1298v179h1039v-115l-832 -1184h827v-178h-1110v113l832 1185h-756z" />
    <glyph glyph-name="bracketleft" unicode="[" horiz-adv-x="768" 
d="M125 -340v1819h518v-115h-330v-1589h330v-115h-518z" />
    <glyph glyph-name="backslash" unicode="\" horiz-adv-x="661" 
d="M451 -348l-381 1843h139l381 -1843h-139z" />
    <glyph glyph-name="bracketright" unicode="]" horiz-adv-x="768" 
d="M125 1366v115h518v-1821h-518v115h330v1591h-330z" />
    <glyph glyph-name="asciicircum" unicode="^" horiz-adv-x="960" 
d="M479 1288l-241 -598h-185l355 801h145l354 -801h-182z" />
    <glyph glyph-name="underscore" unicode="_" horiz-adv-x="1024" 
d="M1024 -256h-1024v102h1024v-102z" />
    <glyph glyph-name="grave" unicode="`" horiz-adv-x="681" 
d="M311 1399l135 -279h-145l-229 279h239z" />
    <glyph glyph-name="a" unicode="a" horiz-adv-x="1087" 
d="M882 -31q-40 -1 -71 17q-62 35 -66 182q-43 -53 -77 -88t-108 -73q-75 -38 -154 -38q-133 0 -224 94q-90 95 -90 229t97 235t331 124q111 11 146 25t82 63q-2 92 -41 123t-154 31t-181 -37t-100 -123l-141 76q18 47 38 77q99 157 378 154q184 0 262 -56q39 -28 67 -59
t36 -89t8 -95l-2 -495q0 -94 12 -114t67 -23v-117q-75 -23 -115 -23zM748 446v164q-54 -41 -88 -54t-121 -30q-156 -27 -215 -98q-52 -57 -52 -136t54 -131t150 -52t181 81q51 50 71 106t20 150z" />
    <glyph glyph-name="b" unicode="b" 
d="M209 0v1477h172v-711q47 103 93 160q86 106 231 104q172 0 272 -142t100 -383t-101 -385t-258 -144t-240 94q-54 64 -101 159v-229h-168zM379 486q0 -196 102 -298q80 -76 187 -76t169 98q62 97 62 263t-28 252t-93 131q-57 35 -116 35q-131 -1 -207 -105t-76 -300z" />
    <glyph glyph-name="c" unicode="c" horiz-adv-x="1087" 
d="M578 -31q-207 0 -337 152t-130 386t132 384t337 149q94 0 169 -32t117 -80q79 -93 95 -174l-142 -68q-57 209 -246 209q-137 0 -211 -100t-74 -301t99 -301q82 -86 201 -87q194 0 260 213l129 -69q-14 -76 -95 -167q-44 -48 -124 -81t-180 -33z" />
    <glyph glyph-name="d" unicode="d" 
d="M842 1477h172v-1477h-170v236q-6 -10 -26 -50q-61 -117 -105 -147q-20 -14 -60 -41t-133 -27q-174 -1 -277 145t-103 386t104 386q106 146 261 146t231 -90q56 -66 106 -172v705zM317 481q0 -172 65 -268q64 -96 176 -96t185 78q98 92 99 313q0 110 -29 188t-63 115
q-35 37 -88 59t-99 23q-246 -10 -246 -412z" />
    <glyph glyph-name="e" unicode="e" horiz-adv-x="1085" 
d="M100 504q0 238 127 386t321 148t317 -137q122 -137 122 -344q0 -23 -4 -108h-704q3 -96 33 -166t63 -103t82 -52t112 -21q187 -4 267 221l137 -68q-132 -291 -424 -291q-201 1 -325 149t-124 386zM549 899q-121 1 -189 -81t-77 -232h526q-4 88 -32 152t-58 95
q-31 30 -78 48q-48 18 -92 18z" />
    <glyph glyph-name="f" unicode="f" horiz-adv-x="661" 
d="M618 866h-200v-866h-172v866h-201v146h201v258q0 131 51 179t188 48q49 0 129 -10v-144q-43 5 -94 5t-77 -28t-25 -101v-207h200v-146z" />
    <glyph glyph-name="g" unicode="g" 
d="M371 -131q-4 -117 228 -117q111 0 183 58t72 157v238q-123 -236 -326 -236q-168 -1 -272 147t-104 387t105 386t278 147q145 0 221 -92q39 -47 56 -78t46 -88v234h168v-983q0 -199 -116 -309t-308 -110t-300 74q-108 73 -107 187q0 35 16 68zM334 528q0 -413 258 -411
q124 0 194 95q70 96 70 278t-76 296t-198 113q-122 0 -185 -97t-63 -274z" />
    <glyph glyph-name="h" unicode="h" 
d="M205 0v1477h172v-639q152 201 325 200q142 0 226 -98t84 -266v-674h-172v653q0 109 -58 173t-164 65q-106 0 -174 -73t-67 -193v-625h-172z" />
    <glyph glyph-name="i" unicode="i" horiz-adv-x="555" 
d="M193 0v1012h172v-1012h-172zM193 1206v221h172v-221h-172z" />
    <glyph glyph-name="j" unicode="j" horiz-adv-x="555" 
d="M217 -127v1139h172v-1170q0 -236 -244 -235q-33 0 -84 8v139q94 -8 125 14t31 105zM217 1206v224h172v-224h-172z" />
    <glyph glyph-name="k" unicode="k" horiz-adv-x="980" 
d="M156 0v1477h172v-895l356 430h190l-278 -320l332 -692h-185l-264 557l-153 -178v-379h-170z" />
    <glyph glyph-name="l" unicode="l" horiz-adv-x="555" 
d="M193 0v1477h172v-1477h-172z" />
    <glyph glyph-name="m" unicode="m" horiz-adv-x="1748" 
d="M1559 709v-709h-170v653q1 113 -53 176t-146 64q-229 0 -229 -295v-598h-173v612q0 145 -48 214t-149 69t-166 -75t-65 -191v-629h-170v1012h170v-187q119 213 297 213q106 0 173 -55t110 -166q52 83 102 132q89 89 217 89q127 0 213 -94t87 -235z" />
    <glyph glyph-name="n" unicode="n" 
d="M1014 702v-702h-172v651q0 113 -56 176t-160 63q-106 0 -178 -70q-72 -71 -71 -181v-639h-172v1012h172v-181q141 207 330 207q137 0 222 -93t85 -243z" />
    <glyph glyph-name="o" unicode="o" 
d="M137 506q0 236 131 384t338 148t340 -146t133 -386t-130 -388t-342 -148t-341 150q-129 151 -129 386zM603 893q-134 0 -210 -101q-76 -102 -76 -288t79 -286t216 -101q137 0 212 103t75 292t-81 285t-215 96z" />
    <glyph glyph-name="p" unicode="p" 
d="M377 1012v-238q27 57 48 93q67 110 156 144q56 22 130 21q168 0 269 -143t101 -383t-104 -386t-278 -146t-268 160q-22 36 -52 97v-622h-172v1403h170zM659 117q90 0 148 61q92 92 92 344q0 365 -240 365q-133 1 -207 -103t-75 -282q1 -178 77 -282t205 -103z" />
    <glyph glyph-name="q" unicode="q" 
d="M842 -391v633q-94 -270 -318 -271q-168 1 -276 149t-107 386t103 382t265 144t242 -100q51 -65 93 -164v244h170v-1403h-172zM846 492q0 114 -29 196t-63 120q-35 38 -83 60t-70 25q-22 2 -42 2q-113 0 -177 -101t-65 -276q0 -281 132 -364q50 -35 118 -35q131 6 205 104
t74 269z" />
    <glyph glyph-name="r" unicode="r" horiz-adv-x="768" 
d="M352 1012v-197q50 91 91 137q76 84 178 84q18 0 71 -4v-178q-57 8 -88 8q-114 0 -184 -74t-70 -188v-600h-170v1012h172z" />
    <glyph glyph-name="s" unicode="s" horiz-adv-x="1087" 
d="M795 258q1 66 -61 106t-175 60t-172 40q-154 51 -204 146q-30 57 -29 133q0 133 109 215q110 82 284 82q102 0 182 -32t121 -79q74 -87 86 -161l-121 -82q-51 213 -272 213q-96 0 -164 -41t-68 -100q-1 -60 61 -98t201 -60q2 0 13 -2q375 -57 379 -313q0 -46 -26 -107
t-67 -102t-131 -75t-211 -34q-180 0 -292 90q-45 35 -69 76q-23 41 -46 121l137 82q25 -229 291 -230q104 0 174 44q70 42 70 108z" />
    <glyph glyph-name="t" unicode="t" horiz-adv-x="661" 
d="M381 1012h215v-144h-215v-612q0 -80 19 -110q20 -30 62 -30t122 19v-143q-104 -23 -156 -23q-119 0 -169 42t-50 143v714h-182v144h182v264l172 123v-387z" />
    <glyph glyph-name="u" unicode="u" 
d="M203 299v713h172v-637q0 -256 203 -256q108 0 186 79t78 191v623h172v-1012h-176v178q-135 -211 -318 -211q-143 0 -230 91t-87 241z" />
    <glyph glyph-name="v" unicode="v" horiz-adv-x="980" 
d="M406 0l-326 1012h166l250 -772l243 772h164l-315 -1012h-182z" />
    <glyph glyph-name="w" unicode="w" horiz-adv-x="1536" 
d="M381 0l-303 1012h168l223 -817l219 817h160l229 -813l217 813h166l-305 -1012h-158l-231 819l-223 -819h-162z" />
    <glyph glyph-name="x" unicode="x" horiz-adv-x="980" 
d="M391 532l-297 480h182l205 -328l193 328h178l-279 -477l332 -535h-182l-240 383l-223 -383h-182z" />
    <glyph glyph-name="y" unicode="y" horiz-adv-x="980" 
d="M238 -252q82 0 116 40t78 187l-354 1037h162l264 -791l235 791h164l-342 -1108q-34 -115 -67 -176q-66 -119 -240 -119q-55 0 -129 8v143q72 -12 113 -12z" />
    <glyph glyph-name="z" unicode="z" horiz-adv-x="980" 
d="M170 872v140h668v-105l-504 -770h518v-137h-723v129l485 743h-444z" />
    <glyph glyph-name="braceleft" unicode="{" horiz-adv-x="684" 
d="M215 726q45 68 45 320q0 253 27 313q40 100 82 121q93 46 209 48h55v-156h-31q-106 0 -139 -39t-33 -168v-145q0 -277 -92 -374q-41 -42 -117 -79q117 -49 163 -148t46 -304v-146q0 -127 33 -167t139 -40h31v-155h-55q-114 0 -200 43q-50 24 -91 126q-22 56 -25 146
q-2 90 -2 173q0 248 -47 317t-160 73v164q59 2 101 25t61 52z" />
    <glyph glyph-name="bar" unicode="|" horiz-adv-x="1118" 
d="M479 -512v2048h160v-2048h-160z" />
    <glyph glyph-name="braceright" unicode="}" horiz-adv-x="684" 
d="M51 1528h55q109 0 200 -43q48 -23 81 -102q33 -80 35 -170q2 -91 2 -174q0 -249 47 -317q47 -69 160 -73v-164q-113 -5 -162 -77q-45 -66 -45 -319t-27 -313q-41 -102 -91 -126q-91 -43 -200 -43h-55v155h31q106 0 139 40t33 167v146q0 205 46 304t163 148
q-74 35 -114 74t-67 132q-28 93 -28 247v145q0 129 -33 168t-139 39h-31v156z" />
    <glyph glyph-name="asciitilde" unicode="~" horiz-adv-x="1343" 
d="M924 561q-60 -1 -120 19t-190 82t-192 61q-131 0 -295 -141v168q154 129 303 129q96 -1 260 -81t236 -79q127 0 291 143v-170q-154 -131 -293 -131z" />
    <glyph glyph-name="uni00A0" unicode="&#xa0;" horiz-adv-x="491" 
 />
    <glyph glyph-name="exclamdown" unicode="&#xa1;" horiz-adv-x="555" 
d="M178 -340l27 1059h141l31 -1059h-199zM178 885v260h199v-260h-199z" />
    <glyph glyph-name="cent" unicode="&#xa2;" horiz-adv-x="1087" 
d="M588 106q195 0 260 213l129 -69q-14 -76 -95 -167q-44 -48 -124 -81t-170 -33t-156 27l-141 -393h-152l166 460q-195 147 -194 449q0 229 132 379t337 149q38 0 73 -6l135 379h156l-153 -428q73 -43 115 -109t55 -122l-142 -68q-27 100 -82 152l-256 -709q51 -23 107 -23
zM573 895q-137 0 -211 -100t-74 -290t74 -280l240 668q-10 2 -29 2z" />
    <glyph glyph-name="sterling" unicode="&#xa3;" horiz-adv-x="1323" 
d="M141 811h273q-25 139 -25 213q0 174 108 287t273 112q115 0 202 -55t128 -156q23 -55 28 -159l-196 20q-4 95 -49 145t-125 50t-127 -60t-47 -148t30 -249h306v-154h-275q10 -80 10 -129q0 -143 -51 -254q132 -70 196 -92t135 -22t111 42t37 117h170q-8 -176 -96 -265
t-246 -89q-98 0 -184 38t-199 114q-104 -152 -258 -152q-84 0 -141 54q-57 55 -57 139t71 144q72 60 176 60q61 0 162 -32q6 59 6 80q0 106 -41 247h-305v154zM176 152q0 -34 28 -56q28 -23 68 -22q82 -1 154 114q-145 90 -218 26q-32 -28 -32 -62z" />
    <glyph glyph-name="currency" unicode="&#xa4;" horiz-adv-x="1366" 
d="M1139 668q0 -150 -86 -265l129 -129l-105 -106l-131 131q-118 -88 -266 -88t-264 84l-127 -127l-107 106l127 127q-82 115 -82 265t84 266l-129 129l105 106l131 -129q119 84 262 84t266 -86l131 131l105 -106l-131 -129q88 -114 88 -264zM377 666q0 -127 89 -217
q89 -91 216 -91t217 92t90 218q0 127 -89 216t-216 89t-217 -90t-90 -217z" />
    <glyph glyph-name="yen" unicode="&#xa5;" horiz-adv-x="1429" 
d="M606 500v182h-487v127h411l-446 668h225l398 -584l413 584h228l-463 -668h426v-127h-504v-182h504v-127h-504v-373h-201v373h-487v127h487z" />
    <glyph glyph-name="brokenbar" unicode="&#xa6;" horiz-adv-x="1118" 
d="M479 666v716h160v-716h-160zM479 -358v716h160v-716h-160z" />
    <glyph glyph-name="section" unicode="&#xa7;" horiz-adv-x="980" 
d="M175 338q-79 98 -79 233t90 231q61 62 138 116q-170 115 -170 280q0 131 99 217t247 86q315 0 358 -323l-172 -45q-12 229 -188 229q-72 0 -121 -40t-49 -97t49 -109t203 -144q154 -90 230 -188q77 -98 77 -221q0 -207 -219 -352q88 -73 126 -139t37 -150
q0 -131 -100 -215t-258 -84q-201 0 -299 172q-33 62 -49 150l176 43q8 -228 193 -230q70 0 118 43t50 101q0 58 -52 111q-52 52 -204 140q-152 87 -231 185zM254 614q0 -77 31 -118q31 -40 50 -60q39 -41 226 -151q94 57 132 112t38 127t-51 133t-180 142q-39 25 -64 43
q-182 -104 -182 -228z" />
    <glyph glyph-name="dieresis" unicode="&#xa8;" horiz-adv-x="681" 
d="M621 1139h-187v204h187v-204zM248 1139h-187v204h187v-204z" />
    <glyph glyph-name="copyright" unicode="&#xa9;" horiz-adv-x="1511" 
d="M756 1366q-260 0 -446 -184t-185 -446q0 -262 185 -445q186 -185 446 -185t444 186t184 445q0 261 -184 445t-444 184zM755 1491q312 0 533 -221q221 -222 221 -534t-221 -533t-533 -221t-534 221q-221 221 -221 533t221 534q222 221 534 221zM752 1049q-115 0 -186 -88
q-70 -87 -70 -231t70 -226t174 -82t170 52t87 140l123 -36q-31 -127 -128 -201t-234 -74q-186 0 -292 119q-106 120 -106 316t111 309t293 112q131 0 219 -61t121 -174l-119 -29q-59 154 -233 154z" />
    <glyph glyph-name="ordfeminine" unicode="&#xaa;" horiz-adv-x="681" 
d="M575 977q-1 -31 9 -40t43 -11v-76q-49 -14 -82 -14q-69 0 -78 125q-59 -70 -107 -97q-48 -26 -122 -26t-128 59t-54 149t68 148q69 57 193 70q74 10 98 18t54 39q0 53 -25 77q-26 24 -98 24t-113 -24q-40 -24 -63 -79l-90 49q33 78 93 111t167 32q236 0 235 -159v-375z
M467 1094v145q-47 -35 -131 -51q-166 -33 -166 -144q0 -53 33 -86q33 -32 95 -32t115 54q54 54 54 114z" />
    <glyph glyph-name="guillemotleft" unicode="&#xab;" horiz-adv-x="980" 
d="M477 567l271 500h178l-271 -498l271 -497h-178zM55 567l271 500h178l-271 -498l271 -497h-178z" />
    <glyph glyph-name="logicalnot" unicode="&#xac;" horiz-adv-x="1366" 
d="M135 827v158h1096v-645h-158v487h-938z" />
    <glyph glyph-name="uni00AD" unicode="&#xad;" horiz-adv-x="768" 
d="M102 424v168h566v-168h-566z" />
    <glyph glyph-name="registered" unicode="&#xae;" horiz-adv-x="1511" 
d="M756 1366q-260 0 -446 -184t-185 -446q0 -262 185 -445q186 -185 446 -185t444 186t184 445q0 261 -184 445t-444 184zM755 1491q312 0 533 -221q221 -222 221 -534t-221 -533t-533 -221t-534 221q-221 221 -221 533t221 534q222 221 534 221zM555 1020v-244h160
q197 0 196 123q0 69 -46 95t-160 26h-150zM555 319h-131v811h278q154 0 214 -24t98 -78q37 -53 37 -110q0 -98 -65 -163t-167 -73q45 -18 86 -62t103 -143l98 -158h-160l-72 127q-78 137 -121 178q-44 40 -120 40h-78v-345z" />
    <glyph glyph-name="macron" unicode="&#xaf;" horiz-adv-x="681" 
d="M653 1153h-624v147h624v-147z" />
    <glyph glyph-name="degree" unicode="&#xb0;" horiz-adv-x="819" 
d="M242 1214q0 -70 49 -120t119 -50t118 50t50 120q0 70 -50 119t-118 49q-70 0 -119 -49t-49 -119zM133 1214q0 115 81 196t196 81q116 0 196 -81t80 -196q0 -114 -81 -196t-195 -82t-196 82q-81 82 -81 196z" />
    <glyph glyph-name="plusminus" unicode="&#xb1;" horiz-adv-x="1366" 
d="M135 -49v158h1096v-158h-1096zM135 758v157h467v471h158v-471h471v-157h-471v-467h-158v467h-467z" />
    <glyph glyph-name="two.superior" unicode="&#xb2;" horiz-adv-x="661" 
d="M88 1307q0 94 69 156q69 63 179 63t178 -60q70 -60 70 -147q0 -88 -39 -144q-39 -55 -161 -145t-173 -151h362v-105h-495q10 94 58 159t141 141t126 121q33 44 43 116q-4 55 -35 90q-32 35 -85 35t-90 -34t-37 -73t16 -88l-96 -51q-31 68 -31 117z" />
    <glyph glyph-name="three.superior" unicode="&#xb3;" horiz-adv-x="661" 
d="M449 983q0 129 -183 145v93q168 2 168 106q0 47 -33 77t-69 30t-56 -4q-18 -4 -38 -26t-19 -63l-104 -38q-10 51 -11 71q0 66 62 110t162 44t167 -51t66 -136q1 -57 -25 -95t-87 -75q139 -68 139 -194q0 -92 -78 -157q-78 -64 -184 -64t-180 54q-73 54 -72 134
q0 27 20 88l105 -45q-7 -57 17 -90t50 -39t66 -6q42 0 80 37q37 37 37 94z" />
    <glyph glyph-name="acute" unicode="&#xb4;" horiz-adv-x="681" 
d="M389 1120h-149l133 279h235z" />
    <glyph glyph-name="mu" unicode="&#xb5;" horiz-adv-x="1138" 
d="M821 1042h178v-1042h-161v125q-56 -84 -116 -117t-148 -33t-144 29q-55 29 -113 102v-514h-178v1450h178v-497q-1 -143 15 -213t61 -119q66 -76 164 -76q97 1 161 55t84 124t19 225v501z" />
    <glyph glyph-name="paragraph" unicode="&#xb6;" horiz-adv-x="1101" 
d="M573 -408h-170v1055q-188 10 -297 122t-108 292q0 125 58 222q116 194 415 194h633v-185h-143v-1700h-170v1700h-218v-1700z" />
    <glyph glyph-name="periodcentered" unicode="&#xb7;" horiz-adv-x="555" 
d="M178 444v258h199v-258h-199z" />
    <glyph glyph-name="cedilla" unicode="&#xb8;" horiz-adv-x="681" 
d="M385 -158q172 -20 172 -162q0 -72 -80 -124q-81 -51 -187 -51t-167 12l12 116q74 -4 92 -4q162 0 162 76q0 31 -30 46q-29 15 -55 17t-71 3l52 178h135z" />
    <glyph glyph-name="one.superior" unicode="&#xb9;" horiz-adv-x="661" 
d="M465 1526v-752h-123v580q-75 -68 -145 -99v101q113 72 178 170h90z" />
    <glyph glyph-name="ordmasculine" unicode="&#xba;" horiz-adv-x="768" 
d="M383 1511q131 0 215 -93q84 -92 84 -242t-82 -244t-215 -94t-216 95t-83 243t83 242q83 93 214 93zM384 1419q-87 0 -135 -62t-48 -179q0 -248 194 -248q80 0 127 66t47 179q0 114 -49 179t-136 65z" />
    <glyph glyph-name="guillemotright" unicode="&#xbb;" horiz-adv-x="980" 
d="M233 1067l271 -500l-271 -495h-178l271 497l-271 498h178zM655 1067l271 -500l-271 -495h-178l271 497l-271 498h178z" />
    <glyph glyph-name="onequarter" unicode="&#xbc;" horiz-adv-x="1748" 
d="M115 -346l1392 1829h129l-1388 -1829h-133zM526 1483v-846h-143v639q-72 -63 -170 -90v104q78 49 123 90t84 103h106zM1481 496v-541h98v-121h-98v-182h-138v182h-344v168l349 494h133zM1346 -45v346l-242 -346h242z" />
    <glyph glyph-name="onehalf" unicode="&#xbd;" horiz-adv-x="1748" 
d="M119 -346l1382 1827h131l-1380 -1827h-133zM520 1481v-842h-139v639q-94 -78 -170 -86v104q72 39 116 79t89 106h104zM1098 266q0 102 71 166q72 64 186 64q113 0 187 -71t74 -159t-39 -152t-74 -95q-35 -30 -122 -93t-138 -129h361v-125h-510q2 58 11 96t53 99t135 131
t124 119t45 143q-6 137 -116 137q-53 0 -84 -35t-31 -80t18 -98l-110 -69q-41 92 -41 151z" />
    <glyph glyph-name="threequarters" unicode="&#xbe;" horiz-adv-x="1748" 
d="M1481 496v-541h98v-121h-98v-182h-135v180h-347v168l349 496h133zM1346 -45v342l-240 -342h240zM119 -346l1388 1827h129l-1384 -1827h-133zM367 737q108 -1 108 147q0 76 -43 113t-151 41v99q180 -4 180 123q0 57 -26 90q-26 32 -67 32t-73 -27t-16 -79l-127 -47
q-12 49 -13 80q0 74 66 123q67 49 171 49q104 -1 170 -57t64 -135q0 -79 -30 -121t-99 -81q154 -59 154 -206q0 -104 -76 -174t-186 -70t-186 64q-75 65 -74 155q0 35 20 96l133 -53q-10 -33 -10 -67t30 -65q30 -30 81 -30z" />
    <glyph glyph-name="questiondown" unicode="&#xbf;" horiz-adv-x="1087" 
d="M545 -391q-180 -1 -295 113t-115 284q0 117 54 212t188 210q80 70 102 117q23 47 25 141h153q0 -200 -69 -286q-29 -36 -109 -109q-152 -139 -151 -279q0 -100 66 -168t161 -67q231 0 231 336l166 -88q-6 -109 -32 -176t-82 -123q-113 -117 -293 -117zM483 881v256h199
v-256h-199z" />
    <glyph glyph-name="Agrave" unicode="&#xc0;" horiz-adv-x="1748" 
d="M831 1864l136 -279h-146l-229 279h239zM139 0l647 1477h181l645 -1477h-205l-158 356h-745l-158 -356h-207zM1169 539l-292 673l-295 -673h587z" />
    <glyph glyph-name="Aacute" unicode="&#xc1;" horiz-adv-x="1748" 
d="M936 1585h-150l134 279h235zM139 0l647 1477h181l645 -1477h-205l-158 356h-745l-158 -356h-207zM1169 539l-292 673l-295 -673h587z" />
    <glyph glyph-name="Acircumflex" unicode="&#xc2;" horiz-adv-x="1748" 
d="M989 1585l-110 170l-113 -170h-207l217 279h191l225 -279h-203zM139 0l647 1477h181l645 -1477h-205l-158 356h-745l-158 -356h-207zM1169 539l-292 673l-295 -673h587z" />
    <glyph glyph-name="Atilde" unicode="&#xc3;" horiz-adv-x="1748" 
d="M734 1837q75 0 165 -47l29 -14q49 -23 81 -23q32 -1 48 19t22 67h131q-2 -107 -53 -167t-128 -60t-163 47l-37 20q-47 25 -81 25t-54 -24q-22 -24 -20 -70h-133q-2 106 58 166t135 61zM139 0l647 1477h181l645 -1477h-205l-158 356h-745l-158 -356h-207zM1169 539
l-292 673l-295 -673h587z" />
    <glyph glyph-name="Adieresis" unicode="&#xc4;" horiz-adv-x="1748" 
d="M1155 1604h-186v204h186v-204zM782 1604h-186v204h186v-204zM139 0l647 1477h181l645 -1477h-205l-158 356h-745l-158 -356h-207zM1169 539l-292 673l-295 -673h587z" />
    <glyph glyph-name="Aring" unicode="&#xc5;" horiz-adv-x="1748" 
d="M880 1833q-44 -1 -75 -31t-31 -75t30 -78t75 -33t75 32t31 76q0 44 -31 77q-30 32 -74 32zM877 1540q-77 0 -129 56t-52 131t54 127t129 52q74 0 126 -52q52 -54 52 -131t-52 -130t-128 -53zM139 0l647 1477h181l645 -1477h-205l-158 356h-745l-158 -356h-207zM1169 539
l-292 673l-295 -673h587z" />
    <glyph glyph-name="AE" unicode="&#xc6;" horiz-adv-x="2197" 
d="M1288 1305v-461h621v-172h-621v-502h680l55 -170h-936v358h-614l-207 -358h-219l850 1477h1128l-63 -172h-674zM1087 1305h-75l-441 -770h516v770z" />
    <glyph glyph-name="Ccedilla" unicode="&#xc7;" horiz-adv-x="1536" 
d="M829 -150q172 -20 172 -162q1 -72 -79 -124q-80 -51 -186 -51t-169 12l13 117q74 -4 92 -4q162 0 162 75q0 31 -30 46t-56 17t-70 3l51 176q-129 15 -232 67t-164 128q-132 168 -162 317t-30 227q-1 365 191 591t502 226q117 -1 215 -33t155 -76q138 -107 187 -259
l-156 -133q-56 164 -145 238q-37 30 -102 55t-142 24q-219 0 -353 -165t-135 -431q0 -157 40 -275t94 -177t128 -97q72 -38 120 -45q48 -8 94 -8q283 0 423 289l140 -146q-63 -113 -129 -172q-158 -143 -406 -149z" />
    <glyph glyph-name="Egrave" unicode="&#xc8;" 
d="M580 1864l135 -279h-146l-229 279h240zM186 0v1477h920l-55 -174h-664v-453h608v-176h-608v-498h666l59 -176h-926z" />
    <glyph glyph-name="Eacute" unicode="&#xc9;" 
d="M657 1585h-149l133 279h236zM186 0v1477h920l-55 -174h-664v-453h608v-176h-608v-498h666l59 -176h-926z" />
    <glyph glyph-name="Ecircumflex" unicode="&#xca;" 
d="M743 1585l-110 170l-113 -170h-207l217 279h191l225 -279h-203zM186 0v1477h920l-55 -174h-664v-453h608v-176h-608v-498h666l59 -176h-926z" />
    <glyph glyph-name="Edieresis" unicode="&#xcb;" 
d="M909 1604h-186v204h186v-204zM537 1604h-187v204h187v-204zM186 0v1477h920l-55 -174h-664v-453h608v-176h-608v-498h666l59 -176h-926z" />
    <glyph glyph-name="Igrave" unicode="&#xcc;" horiz-adv-x="661" 
d="M287 1864l135 -279h-146l-229 279h240zM229 0v1477h203v-1477h-203z" />
    <glyph glyph-name="Iacute" unicode="&#xcd;" horiz-adv-x="661" 
d="M377 1585h-150l133 279h236zM229 0v1477h203v-1477h-203z" />
    <glyph glyph-name="Icircumflex" unicode="&#xce;" horiz-adv-x="661" 
d="M444 1585l-110 170l-113 -170h-207l217 279h191l225 -279h-203zM229 0v1477h203v-1477h-203z" />
    <glyph glyph-name="Idieresis" unicode="&#xcf;" horiz-adv-x="661" 
d="M610 1604h-186v204h186v-204zM238 1604h-187v204h187v-204zM229 0v1477h203v-1477h-203z" />
    <glyph glyph-name="Eth" unicode="&#xd0;" horiz-adv-x="1642" 
d="M831 1296h-350v-481h480v-156h-480v-477h367q213 0 333 146t119 401q0 311 -159 461q-109 106 -310 106zM279 815v662h550q301 0 465 -164q222 -215 222 -567t-176 -548q-176 -198 -486 -198h-575v659h-216v156h216z" />
    <glyph glyph-name="Ntilde" unicode="&#xd1;" horiz-adv-x="1536" 
d="M648 1837q75 0 165 -47l29 -14q49 -23 81 -23q32 -1 48 19t22 67h131q-2 -107 -53 -167t-128 -60t-163 47l-37 20q-47 25 -81 25t-54 -24q-22 -24 -20 -70h-133q-2 106 58 166t135 61zM205 0v1477h272l651 -1151v1151h203v-1477h-241l-684 1204v-1204h-201z" />
    <glyph glyph-name="Ograve" unicode="&#xd2;" horiz-adv-x="1642" 
d="M793 1864l135 -279h-146l-229 279h240zM121 734q0 360 194 570q195 208 509 208t507 -213q193 -212 193 -556q0 -193 -54 -341t-133 -230q-78 -82 -180 -135q-166 -86 -338 -86q-322 -1 -510 211t-188 572zM823 1331q-223 0 -355 -163t-132 -435t135 -438t354 -166
t352 168q132 168 132 441t-131 433q-132 160 -355 160z" />
    <glyph glyph-name="Oacute" unicode="&#xd3;" horiz-adv-x="1642" 
d="M870 1585h-149l133 279h236zM121 734q0 360 194 570q195 208 509 208t507 -213q193 -212 193 -556q0 -193 -54 -341t-133 -230q-78 -82 -180 -135q-166 -86 -338 -86q-322 -1 -510 211t-188 572zM823 1331q-223 0 -355 -163t-132 -435t135 -438t354 -166t352 168
q132 168 132 441t-131 433q-132 160 -355 160z" />
    <glyph glyph-name="Ocircumflex" unicode="&#xd4;" horiz-adv-x="1642" 
d="M936 1585l-111 170l-112 -170h-207l217 279h190l226 -279h-203zM121 734q0 360 194 570q195 208 509 208t507 -213q193 -212 193 -556q0 -193 -54 -341t-133 -230q-78 -82 -180 -135q-166 -86 -338 -86q-322 -1 -510 211t-188 572zM823 1331q-223 0 -355 -163t-132 -435
t135 -438t354 -166t352 168q132 168 132 441t-131 433q-132 160 -355 160z" />
    <glyph glyph-name="Otilde" unicode="&#xd5;" horiz-adv-x="1642" 
d="M680 1837q74 0 166 -47l28 -14q49 -23 81 -23q33 -1 49 19t22 67h131q-2 -107 -53 -167t-128 -60t-163 47l-37 20q-47 25 -81 25t-55 -24t-19 -70h-134q-1 106 59 166t134 61zM121 734q0 360 194 570q195 208 509 208t507 -213q193 -212 193 -556q0 -193 -54 -341
t-133 -230q-78 -82 -180 -135q-166 -86 -338 -86q-322 -1 -510 211t-188 572zM823 1331q-223 0 -355 -163t-132 -435t135 -438t354 -166t352 168q132 168 132 441t-131 433q-132 160 -355 160z" />
    <glyph glyph-name="Odieresis" unicode="&#xd6;" horiz-adv-x="1642" 
d="M1102 1604h-187v204h187v-204zM729 1604h-186v204h186v-204zM121 734q0 360 194 570q195 208 509 208t507 -213q193 -212 193 -556q0 -193 -54 -341t-133 -230q-78 -82 -180 -135q-166 -86 -338 -86q-322 -1 -510 211t-188 572zM823 1331q-223 0 -355 -163t-132 -435
t135 -438t354 -166t352 168q132 168 132 441t-131 433q-132 160 -355 160z" />
    <glyph glyph-name="multiply" unicode="&#xd7;" horiz-adv-x="1368" 
d="M573 666l-397 397l111 111l397 -398l397 398l113 -111l-397 -397l393 -396l-111 -110l-393 395l-397 -395l-111 110z" />
    <glyph glyph-name="Oslash" unicode="&#xd8;" horiz-adv-x="1642" 
d="M123 760q0 336 194 544q195 208 512 207q258 0 435 -145l129 147l120 -108l-137 -158q150 -201 150 -504q0 -193 -54 -341t-133 -230q-78 -82 -180 -135q-166 -86 -338 -86q-270 0 -444 149l-133 -153l-125 108l145 168q-141 201 -141 537zM823 129q223 0 356 168
q132 168 132 448q0 199 -76 340l-725 -831q129 -125 313 -125zM338 725q0 -197 74 -334l723 826q-125 115 -306 114q-227 0 -359 -163t-132 -443z" />
    <glyph glyph-name="Ugrave" unicode="&#xd9;" horiz-adv-x="1536" 
d="M739 1864l135 -279h-145l-229 279h239zM1128 506v971h203v-1002q0 -246 -125 -373q-146 -152 -424 -152t-428 132q-150 131 -149 362v1033h203v-1014q0 -158 95 -242t275 -84q80 0 155 26t118 70q77 78 77 273z" />
    <glyph glyph-name="Uacute" unicode="&#xda;" horiz-adv-x="1536" 
d="M817 1585h-149l133 279h235zM1128 506v971h203v-1002q0 -246 -125 -373q-146 -152 -424 -152t-428 132q-150 131 -149 362v1033h203v-1014q0 -158 95 -242t275 -84q80 0 155 26t118 70q77 78 77 273z" />
    <glyph glyph-name="Ucircumflex" unicode="&#xdb;" horiz-adv-x="1536" 
d="M883 1585l-111 170l-113 -170h-206l217 279h190l225 -279h-202zM1128 506v971h203v-1002q0 -246 -125 -373q-146 -152 -424 -152t-428 132q-150 131 -149 362v1033h203v-1014q0 -158 95 -242t275 -84q80 0 155 26t118 70q77 78 77 273z" />
    <glyph glyph-name="Udieresis" unicode="&#xdc;" horiz-adv-x="1536" 
d="M1049 1604h-187v204h187v-204zM676 1604h-187v204h187v-204zM1128 506v971h203v-1002q0 -246 -125 -373q-146 -152 -424 -152t-428 132q-150 131 -149 362v1033h203v-1014q0 -158 95 -242t275 -84q80 0 155 26t118 70q77 78 77 273z" />
    <glyph glyph-name="Yacute" unicode="&#xdd;" horiz-adv-x="1429" 
d="M764 1585h-150l134 279h235zM809 0h-203v598l-522 879h227l396 -666l413 666h228l-539 -871v-606z" />
    <glyph glyph-name="Thorn" unicode="&#xde;" horiz-adv-x="1429" 
d="M215 1477h201v-299h395q215 0 350 -122t135 -322t-141 -316t-387 -117h-352v-301h-201v1477zM739 999h-323v-522h299q182 1 268 63t86 193q0 266 -330 266z" />
    <glyph glyph-name="germandbls" unicode="&#xdf;" 
d="M705 119q165 0 165 265q0 122 -10 180t-41 108q-61 100 -244 102v141q137 1 197 55t59 169q0 221 -253 221q-140 0 -196 -65t-56 -226v-1069h-170v1116q0 184 109 287q109 102 307 102t322 -100t124 -258q0 -236 -217 -305q189 -85 235 -236q25 -78 25 -182
q0 -203 -96 -326t-254 -123q-201 0 -273 185q-20 59 -20 164h139q10 -205 148 -205z" />
    <glyph glyph-name="agrave" unicode="&#xe0;" horiz-adv-x="1087" 
d="M514 1399l135 -279h-145l-230 279h240zM882 -31q-40 -1 -71 17q-62 35 -66 182q-43 -53 -77 -88t-108 -73q-75 -38 -154 -38q-133 0 -224 94q-90 95 -90 229t97 235t331 124q111 11 146 25t82 63q-2 92 -41 123t-154 31t-181 -37t-100 -123l-141 76q18 47 38 77
q99 157 378 154q184 0 262 -56q39 -28 67 -59t36 -89t8 -95l-2 -495q0 -94 12 -114t67 -23v-117q-75 -23 -115 -23zM748 446v164q-54 -41 -88 -54t-121 -30q-156 -27 -215 -98q-52 -57 -52 -136t54 -131t150 -52t181 81q51 50 71 106t20 150z" />
    <glyph glyph-name="aacute" unicode="&#xe1;" horiz-adv-x="1087" 
d="M592 1120h-150l133 279h236zM882 -31q-40 -1 -71 17q-62 35 -66 182q-43 -53 -77 -88t-108 -73q-75 -38 -154 -38q-133 0 -224 94q-90 95 -90 229t97 235t331 124q111 11 146 25t82 63q-2 92 -41 123t-154 31t-181 -37t-100 -123l-141 76q18 47 38 77q99 157 378 154
q184 0 262 -56q39 -28 67 -59t36 -89t8 -95l-2 -495q0 -94 12 -114t67 -23v-117q-75 -23 -115 -23zM748 446v164q-54 -41 -88 -54t-121 -30q-156 -27 -215 -98q-52 -57 -52 -136t54 -131t150 -52t181 81q51 50 71 106t20 150z" />
    <glyph glyph-name="acircumflex" unicode="&#xe2;" horiz-adv-x="1087" 
d="M657 1120l-110 170l-113 -170h-207l217 279h191l225 -279h-203zM882 -31q-40 -1 -71 17q-62 35 -66 182q-43 -53 -77 -88t-108 -73q-75 -38 -154 -38q-133 0 -224 94q-90 95 -90 229t97 235t331 124q111 11 146 25t82 63q-2 92 -41 123t-154 31t-181 -37t-100 -123
l-141 76q18 47 38 77q99 157 378 154q184 0 262 -56q39 -28 67 -59t36 -89t8 -95l-2 -495q0 -94 12 -114t67 -23v-117q-75 -23 -115 -23zM748 446v164q-54 -41 -88 -54t-121 -30q-156 -27 -215 -98q-52 -57 -52 -136t54 -131t150 -52t181 81q51 50 71 106t20 150z" />
    <glyph glyph-name="atilde" unicode="&#xe3;" horiz-adv-x="1087" 
d="M402 1372q75 0 165 -47l29 -14q49 -23 81 -23t48 20t23 66h131q-1 -106 -53 -166t-129 -61q-77 0 -162 47l-37 20q-47 25 -81 25q-33 -1 -55 -25t-20 -69h-133q-2 107 58 167t135 60zM882 -31q-40 -1 -71 17q-62 35 -66 182q-43 -53 -77 -88t-108 -73q-75 -38 -154 -38
q-133 0 -224 94q-90 95 -90 229t97 235t331 124q111 11 146 25t82 63q-2 92 -41 123t-154 31t-181 -37t-100 -123l-141 76q18 47 38 77q99 157 378 154q184 0 262 -56q39 -28 67 -59t36 -89t8 -95l-2 -495q0 -94 12 -114t67 -23v-117q-75 -23 -115 -23zM748 446v164
q-54 -41 -88 -54t-121 -30q-156 -27 -215 -98q-52 -57 -52 -136t54 -131t150 -52t181 81q51 50 71 106t20 150z" />
    <glyph glyph-name="adieresis" unicode="&#xe4;" horiz-adv-x="1087" 
d="M823 1139h-186v204h186v-204zM451 1139h-187v204h187v-204zM882 -31q-40 -1 -71 17q-62 35 -66 182q-43 -53 -77 -88t-108 -73q-75 -38 -154 -38q-133 0 -224 94q-90 95 -90 229t97 235t331 124q111 11 146 25t82 63q-2 92 -41 123t-154 31t-181 -37t-100 -123l-141 76
q18 47 38 77q99 157 378 154q184 0 262 -56q39 -28 67 -59t36 -89t8 -95l-2 -495q0 -94 12 -114t67 -23v-117q-75 -23 -115 -23zM748 446v164q-54 -41 -88 -54t-121 -30q-156 -27 -215 -98q-52 -57 -52 -136t54 -131t150 -52t181 81q51 50 71 106t20 150z" />
    <glyph glyph-name="aring" unicode="&#xe5;" horiz-adv-x="1087" 
d="M548 1368q-44 0 -75 -30t-31 -76q0 -45 30 -78t75 -33t76 32t30 77q-1 44 -31 76t-74 32zM545 1075q-76 -1 -128 55t-52 132t54 128t128 52t126 -53t52 -130t-52 -131t-128 -53zM882 -31q-40 -1 -71 17q-62 35 -66 182q-43 -53 -77 -88t-108 -73q-75 -38 -154 -38
q-133 0 -224 94q-90 95 -90 229t97 235t331 124q111 11 146 25t82 63q-2 92 -41 123t-154 31t-181 -37t-100 -123l-141 76q18 47 38 77q99 157 378 154q184 0 262 -56q39 -28 67 -59t36 -89t8 -95l-2 -495q0 -94 12 -114t67 -23v-117q-75 -23 -115 -23zM748 446v164
q-54 -41 -88 -54t-121 -30q-156 -27 -215 -98q-52 -57 -52 -136t54 -131t150 -52t181 81q51 50 71 106t20 150z" />
    <glyph glyph-name="ae" unicode="&#xe6;" horiz-adv-x="1748" 
d="M1219 1042q181 0 303 -141t123 -360q0 -43 -5 -86h-702q8 -182 96 -271q72 -76 183 -75q207 0 270 221l141 -68q-131 -293 -420 -293q-143 0 -237 67t-162 206q-134 -199 -251 -247q-62 -26 -134 -26q-141 0 -229 91q-89 92 -89 230t94 234t318 119q115 11 154 27t90 67
q4 84 -36 124t-157 40q-219 0 -282 -164l-144 74q16 43 33 72q16 29 60 71q93 88 325 86q135 0 208 -28t130 -101q139 131 320 131zM762 444v164q-59 -43 -97 -57q-39 -15 -141 -33t-170 -69t-68 -145t53 -144q51 -51 149 -51t182 77q92 90 92 258zM1202 905
q-162 0 -229 -155q-25 -56 -33 -158h524q-4 88 -32 152t-58 95q-31 30 -79 48q-49 18 -93 18z" />
    <glyph glyph-name="ccedilla" unicode="&#xe7;" horiz-adv-x="1087" 
d="M739 -284q0 -72 -80 -124t-186 -51q-106 0 -168 13l12 116q74 -4 93 -4q162 0 161 76q0 31 -29 46q-30 15 -56 17t-70 2l51 177q-162 39 -259 181t-97 359t132 367t337 149q94 0 169 -32t117 -80q79 -93 95 -174l-142 -68q-57 209 -246 209q-137 0 -211 -100t-74 -301
t99 -301q82 -86 201 -87q194 0 260 213l129 -69q-13 -72 -90 -162q-41 -47 -117 -81t-172 -36l-31 -92q172 -21 172 -163z" />
    <glyph glyph-name="egrave" unicode="&#xe8;" horiz-adv-x="1085" 
d="M514 1399l135 -279h-145l-230 279h240zM100 504q0 238 127 386t321 148t317 -137q122 -137 122 -344q0 -23 -4 -108h-704q3 -96 33 -166t63 -103t82 -52t112 -21q187 -4 267 221l137 -68q-132 -291 -424 -291q-201 1 -325 149t-124 386zM549 899q-121 1 -189 -81
t-77 -232h526q-4 88 -32 152t-58 95q-31 30 -78 48q-48 18 -92 18z" />
    <glyph glyph-name="eacute" unicode="&#xe9;" horiz-adv-x="1085" 
d="M592 1120h-150l133 279h236zM100 504q0 238 127 386t321 148t317 -137q122 -137 122 -344q0 -23 -4 -108h-704q3 -96 33 -166t63 -103t82 -52t112 -21q187 -4 267 221l137 -68q-132 -291 -424 -291q-201 1 -325 149t-124 386zM549 899q-121 1 -189 -81t-77 -232h526
q-4 88 -32 152t-58 95q-31 30 -78 48q-48 18 -92 18z" />
    <glyph glyph-name="ecircumflex" unicode="&#xea;" horiz-adv-x="1085" 
d="M657 1120l-110 170l-113 -170h-207l217 279h191l225 -279h-203zM100 504q0 238 127 386t321 148t317 -137q122 -137 122 -344q0 -23 -4 -108h-704q3 -96 33 -166t63 -103t82 -52t112 -21q187 -4 267 221l137 -68q-132 -291 -424 -291q-201 1 -325 149t-124 386zM549 899
q-121 1 -189 -81t-77 -232h526q-4 88 -32 152t-58 95q-31 30 -78 48q-48 18 -92 18z" />
    <glyph glyph-name="edieresis" unicode="&#xeb;" horiz-adv-x="1085" 
d="M823 1139h-186v204h186v-204zM451 1139h-187v204h187v-204zM100 504q0 238 127 386t321 148t317 -137q122 -137 122 -344q0 -23 -4 -108h-704q3 -96 33 -166t63 -103t82 -52t112 -21q187 -4 267 221l137 -68q-132 -291 -424 -291q-201 1 -325 149t-124 386zM549 899
q-121 1 -189 -81t-77 -232h526q-4 88 -32 152t-58 95q-31 30 -78 48q-48 18 -92 18z" />
    <glyph glyph-name="igrave" unicode="&#xec;" horiz-adv-x="555" 
d="M229 1399l136 -279h-146l-229 279h239zM193 0v1012h172v-1012h-172z" />
    <glyph glyph-name="iacute" unicode="&#xed;" horiz-adv-x="555" 
d="M342 1120h-149l133 279h235zM193 0v1012h172v-1012h-172z" />
    <glyph glyph-name="icircumflex" unicode="&#xee;" horiz-adv-x="555" 
d="M391 1120l-110 170l-113 -170h-207l217 279h191l225 -279h-203zM193 0v1012h172v-1012h-172z" />
    <glyph glyph-name="idieresis" unicode="&#xef;" horiz-adv-x="555" 
d="M557 1139h-186v204h186v-204zM184 1139h-186v204h186v-204zM193 0v1012h172v-1012h-172z" />
    <glyph glyph-name="eth" unicode="&#xf0;" 
d="M1083 553q0 -428 -300 -547q-87 -35 -173 -35q-209 0 -342 151t-133 382t131 385t324 153q104 0 227 -75q-8 43 -59 115t-129 141l-283 -123l-45 104l223 99q-76 49 -159 81l65 99q117 -27 250 -115l258 111l45 -105l-203 -86q63 -59 123 -135q180 -236 180 -600z
M614 119q136 -1 212 107t77 287q0 179 -80 281t-218 103q-138 0 -213 -101q-75 -100 -75 -286t80 -289q81 -102 217 -102z" />
    <glyph glyph-name="ntilde" unicode="&#xf1;" 
d="M468 1372q74 0 165 -47l29 -14q48 -23 80 -23t48 20t23 66h131q-2 -106 -53 -166t-128 -61q-77 0 -163 47l-37 20q-47 25 -81 25q-34 -1 -55 -25t-19 -69h-134q-2 107 58 167q62 60 136 60zM1014 702v-702h-172v651q0 113 -56 176t-160 63q-106 0 -178 -70
q-72 -71 -71 -181v-639h-172v1012h172v-181q141 207 330 207q137 0 222 -93t85 -243z" />
    <glyph glyph-name="ograve" unicode="&#xf2;" 
d="M580 1399l135 -279h-146l-229 279h240zM137 506q0 236 131 384t338 148t340 -146t133 -386t-130 -388t-342 -148t-341 150q-129 151 -129 386zM603 893q-134 0 -210 -101q-76 -102 -76 -288t79 -286t216 -101q137 0 212 103t75 292t-81 285t-215 96z" />
    <glyph glyph-name="oacute" unicode="&#xf3;" 
d="M657 1120h-149l133 279h236zM137 506q0 236 131 384t338 148t340 -146t133 -386t-130 -388t-342 -148t-341 150q-129 151 -129 386zM603 893q-134 0 -210 -101q-76 -102 -76 -288t79 -286t216 -101q137 0 212 103t75 292t-81 285t-215 96z" />
    <glyph glyph-name="ocircumflex" unicode="&#xf4;" 
d="M723 1120l-111 170l-112 -170h-207l217 279h190l226 -279h-203zM137 506q0 236 131 384t338 148t340 -146t133 -386t-130 -388t-342 -148t-341 150q-129 151 -129 386zM603 893q-134 0 -210 -101q-76 -102 -76 -288t79 -286t216 -101q137 0 212 103t75 292t-81 285
t-215 96z" />
    <glyph glyph-name="otilde" unicode="&#xf5;" 
d="M468 1372q74 0 165 -47l29 -14q48 -23 80 -23t48 20t23 66h131q-2 -106 -53 -166t-128 -61q-77 0 -163 47l-37 20q-47 25 -81 25q-34 -1 -55 -25t-19 -69h-134q-2 107 58 167q62 60 136 60zM137 506q0 236 131 384t338 148t340 -146t133 -386t-130 -388t-342 -148
t-341 150q-129 151 -129 386zM603 893q-134 0 -210 -101q-76 -102 -76 -288t79 -286t216 -101q137 0 212 103t75 292t-81 285t-215 96z" />
    <glyph glyph-name="odieresis" unicode="&#xf6;" 
d="M889 1139h-187v204h187v-204zM516 1139h-186v204h186v-204zM137 506q0 236 131 384t338 148t340 -146t133 -386t-130 -388t-342 -148t-341 150q-129 151 -129 386zM603 893q-134 0 -210 -101q-76 -102 -76 -288t79 -286t216 -101q137 0 212 103t75 292t-81 285t-215 96z
" />
    <glyph glyph-name="divide" unicode="&#xf7;" horiz-adv-x="1368" 
d="M135 588v157h1098v-157h-1098zM582 256q0 41 29 70q30 28 71 28t70 -28q28 -28 28 -68q0 -41 -28 -71q-28 -29 -70 -29q-41 0 -71 28q-29 29 -29 70zM681 979q-39 -1 -69 29t-30 71t28 69q29 28 70 28t70 -29q28 -29 28 -70t-28 -69t-69 -29z" />
    <glyph glyph-name="oslash" unicode="&#xf8;" 
d="M141 529q0 213 131 361t336 148q164 0 285 -94l115 131l106 -98l-123 -141q92 -131 92 -320q0 -250 -130 -398t-347 -149q-164 0 -280 99l-113 -129l-109 96l125 143q-88 139 -88 351zM903 504q0 119 -31 194l-442 -512q72 -70 198 -70t200 104q74 103 75 284zM597 893
q-124 0 -200 -101t-75 -292q0 -98 26 -185l445 512q-72 66 -196 66z" />
    <glyph glyph-name="ugrave" unicode="&#xf9;" 
d="M580 1399l135 -279h-146l-229 279h240zM203 299v713h172v-637q0 -256 203 -256q108 0 186 79t78 191v623h172v-1012h-176v178q-135 -211 -318 -211q-143 0 -230 91t-87 241z" />
    <glyph glyph-name="uacute" unicode="&#xfa;" 
d="M657 1120h-149l133 279h236zM203 299v713h172v-637q0 -256 203 -256q108 0 186 79t78 191v623h172v-1012h-176v178q-135 -211 -318 -211q-143 0 -230 91t-87 241z" />
    <glyph glyph-name="ucircumflex" unicode="&#xfb;" 
d="M723 1120l-111 170l-112 -170h-207l217 279h190l226 -279h-203zM203 299v713h172v-637q0 -256 203 -256q108 0 186 79t78 191v623h172v-1012h-176v178q-135 -211 -318 -211q-143 0 -230 91t-87 241z" />
    <glyph glyph-name="udieresis" unicode="&#xfc;" 
d="M889 1139h-187v204h187v-204zM516 1139h-186v204h186v-204zM203 299v713h172v-637q0 -256 203 -256q108 0 186 79t78 191v623h172v-1012h-176v178q-135 -211 -318 -211q-143 0 -230 91t-87 241z" />
    <glyph glyph-name="yacute" unicode="&#xfd;" horiz-adv-x="980" 
d="M539 1120h-150l133 279h236zM238 -252q82 0 116 40t78 187l-354 1037h162l264 -791l235 791h164l-342 -1108q-34 -115 -67 -176q-66 -119 -240 -119q-55 0 -129 8v143q72 -12 113 -12z" />
    <glyph glyph-name="thorn" unicode="&#xfe;" 
d="M385 1477v-711q78 194 201 243q59 24 137 23q166 0 266 -142q101 -142 101 -381t-106 -387t-277 -149q-123 0 -191 67t-129 191v-622h-166v1868h164zM911 506q0 380 -249 381q-125 -1 -201 -103t-76 -280t77 -282t201 -105q124 0 186 102q62 101 62 287z" />
    <glyph glyph-name="ydieresis" unicode="&#xff;" horiz-adv-x="980" 
d="M770 1139h-186v204h186v-204zM397 1139h-186v204h186v-204zM238 -252q82 0 116 40t78 187l-354 1037h162l264 -791l235 791h164l-342 -1108q-34 -115 -67 -176q-66 -119 -240 -119q-55 0 -129 8v143q72 -12 113 -12z" />
    <glyph glyph-name="dotlessi" unicode="&#x131;" horiz-adv-x="555" 
d="M193 0v1012h172v-1012h-172z" />
    <glyph glyph-name="Lslash" unicode="&#x141;" 
d="M291 1477h201v-557l253 210v-204l-253 -209v-541h708v-176h-909v549l-195 -160v201l195 162v725z" />
    <glyph glyph-name="lslash" unicode="&#x142;" horiz-adv-x="555" 
d="M193 1477h172v-582l157 131v-180l-157 -131v-715h-172v573l-160 -133v181l160 133v723z" />
    <glyph glyph-name="OE" unicode="&#x152;" horiz-adv-x="2197" 
d="M1376 1307v-461h604v-172h-604v-500h662l61 -172h-962l-351 -8q-317 0 -502 196q-186 196 -186 544q0 347 198 554t513 197l72 -4l143 -4h1071l-61 -170h-658zM1174 1307q-154 0 -197 2h-70q-170 0 -265 -28t-161 -95q-149 -156 -149 -452t151 -451q68 -70 150 -94
t252 -23l188 4l101 4v1133z" />
    <glyph glyph-name="oe" unicode="&#x153;" horiz-adv-x="1746" 
d="M1236 -31q-95 0 -169 39q-73 39 -101 73t-67 89q-45 -57 -85 -95t-114 -72t-157 -34q-195 0 -327 150q-132 149 -132 381t127 386t324 152q98 0 179 -37q80 -37 112 -69t77 -86q49 70 94 106q111 86 269 86t279 -138q120 -138 120 -335q0 -45 -6 -116h-666q4 -92 29 -160
q24 -68 54 -102q68 -78 179 -78q189 0 252 221l140 -68q-23 -51 -45 -86t-69 -90q-48 -55 -125 -86t-172 -31zM266 506q0 -180 75 -284t202 -103q127 0 197 105q70 106 69 286q1 180 -71 282t-198 101q-126 0 -200 -103q-74 -104 -74 -284zM999 588h486q-2 145 -68 231
t-174 86q-66 0 -140 -49q-44 -28 -74 -98t-30 -170z" />
    <glyph glyph-name="Scaron" unicode="&#x160;" horiz-adv-x="1429" 
d="M604 1864l113 -170l110 170h205l-225 -279h-193l-215 279h205zM752 129q137 0 233 80q96 79 96 191t-84 174t-274 108t-256 74q-66 29 -160 104q-113 119 -112 260q0 176 149 286q150 110 391 110q111 0 200 -27t139 -59t94 -84q44 -53 56 -78t31 -66l-151 -141
q-43 140 -129 202q-37 25 -105 47t-151 21q-145 0 -231 -56t-85 -155q0 -99 129 -152q97 -41 205 -67q109 -27 167 -43t140 -54t132 -85t86 -124q37 -77 36 -173q0 -213 -160 -343t-423 -130q-317 0 -484 194q-59 72 -100 197l170 141q20 -92 51 -149t88 -103
q119 -100 312 -100z" />
    <glyph glyph-name="scaron" unicode="&#x161;" horiz-adv-x="1087" 
d="M432 1399l113 -170l110 170h205l-225 -279h-193l-215 279h205zM795 258q1 66 -61 106t-175 60t-172 40q-154 51 -204 146q-30 57 -29 133q0 133 109 215q110 82 284 82q102 0 182 -32t121 -79q74 -87 86 -161l-121 -82q-51 213 -272 213q-96 0 -164 -41t-68 -100
q-1 -60 61 -98t201 -60q2 0 13 -2q375 -57 379 -313q0 -46 -26 -107t-67 -102t-131 -75t-211 -34q-180 0 -292 90q-45 35 -69 76q-23 41 -46 121l137 82q25 -229 291 -230q104 0 174 44q70 42 70 108z" />
    <glyph glyph-name="Ydieresis" unicode="&#x178;" horiz-adv-x="1429" 
d="M995 1604h-186v204h186v-204zM623 1604h-187v204h187v-204zM809 0h-203v598l-522 879h227l396 -666l413 666h228l-539 -871v-606z" />
    <glyph glyph-name="Zcaron" unicode="&#x17d;" horiz-adv-x="1323" 
d="M551 1864l113 -170l110 170h205l-225 -279h-193l-215 279h205zM180 1298v179h1039v-115l-832 -1184h827v-178h-1110v113l832 1185h-756z" />
    <glyph glyph-name="zcaron" unicode="&#x17e;" horiz-adv-x="980" 
d="M379 1399l113 -170l110 170h205l-225 -279h-193l-215 279h205zM170 872v140h668v-105l-504 -770h518v-137h-723v129l485 743h-444z" />
    <glyph glyph-name="florin" unicode="&#x192;" horiz-adv-x="661" 
d="M743 1356q-170 0 -204 -148l-50 -196h177l-35 -135h-172l-266 -1158h-170l268 1158h-191l37 135h185l61 254q59 248 352 247q66 0 146 -8l-39 -155q-61 6 -99 6z" />
    <glyph glyph-name="circumflex" unicode="&#x2c6;" horiz-adv-x="681" 
d="M455 1120l-111 170l-113 -170h-206l217 279h190l225 -279h-202z" />
    <glyph glyph-name="caron" unicode="&#x2c7;" horiz-adv-x="681" 
d="M229 1399l113 -170l111 170h204l-225 -279h-192l-215 279h204z" />
    <glyph glyph-name="uni02C9" unicode="&#x2c9;" horiz-adv-x="681" 
d="M653 1153h-624v147h624v-147z" />
    <glyph glyph-name="breve" unicode="&#x2d8;" horiz-adv-x="681" 
d="M342 1130q-129 0 -206 67t-91 192h125q23 -135 170 -135t174 135h123q-16 -125 -91 -192t-204 -67z" />
    <glyph glyph-name="dotaccent" unicode="&#x2d9;" horiz-adv-x="681" 
d="M453 1120h-224v223h224v-223z" />
    <glyph glyph-name="ring" unicode="&#x2da;" horiz-adv-x="681" 
d="M451 1260q0 44 -31 76t-75 32q-45 0 -75 -30t-30 -76q0 -45 30 -78t74 -33q45 0 76 32t31 77zM342 1075q-76 -1 -128 55t-52 132t54 128t128 52t126 -53t52 -130t-52 -131t-128 -53z" />
    <glyph glyph-name="ogonek" unicode="&#x2db;" horiz-adv-x="681" 
d="M123 -286q0 93 41 235h123q-39 -88 -39 -159t41 -114t111 -43t159 45v-118q-119 -60 -218 -60t-159 60t-59 154z" />
    <glyph glyph-name="tilde" unicode="&#x2dc;" horiz-adv-x="681" 
d="M200 1372q74 0 165 -47l28 -14q49 -23 81 -23t48 20t23 66h131q-2 -106 -53 -166t-129 -61q-78 0 -162 47l-37 20q-47 25 -81 25q-34 -1 -56 -25t-19 -69h-133q-2 107 58 167q62 60 136 60z" />
    <glyph glyph-name="hungarumlaut" unicode="&#x2dd;" horiz-adv-x="681" 
d="M487 1120h-151l127 279h231zM133 1120h-143l121 279h233z" />
    <glyph glyph-name="uni03A9" unicode="&#x3a9;" horiz-adv-x="1253" 
d="M336 139v6q-231 252 -232 615q0 289 150 473t380 184t370 -190t141 -455q0 -198 -68 -362t-166 -265v-6h258v-139h-432v102q102 82 172 248t70 385q0 299 -156 455q-82 82 -194 82q-164 0 -261 -153q-98 -153 -98 -375t73 -394t171 -248v-102h-434v139h256z" />
    <glyph glyph-name="uni03BC" unicode="&#x3bc;" horiz-adv-x="1138" 
d="M821 1042h178v-1042h-161v125q-56 -84 -116 -117t-148 -33t-144 29q-55 29 -113 102v-514h-178v1450h178v-497q-1 -143 15 -213t61 -119q66 -76 164 -76q97 1 161 55t84 124t19 225v501z" />
    <glyph glyph-name="pi" unicode="&#x3c0;" horiz-adv-x="1032" 
d="M848 895v-612q0 -190 24 -283h-155q-31 57 -31 272v623h-297q-8 -211 -44 -482t-83 -413h-160q49 162 85 427t40 468q-123 0 -186 -23l-23 113q76 57 267 57h712l-12 -147h-137z" />
    <glyph glyph-name="endash" unicode="&#x2013;" horiz-adv-x="1024" 
d="M-10 422v182h1044v-182h-1044z" />
    <glyph glyph-name="emdash" unicode="&#x2014;" horiz-adv-x="2048" 
d="M-10 422v182h2066v-182h-2066z" />
    <glyph glyph-name="quoteleft" unicode="&#x2018;" horiz-adv-x="555" 
d="M180 928v225q0 197 127 324l58 -60q-41 -67 -55 -109t-15 -120h82v-260h-197z" />
    <glyph glyph-name="quoteright" unicode="&#x2019;" horiz-adv-x="555" 
d="M176 1217v260h201v-287q0 -66 -34 -138t-89 -124l-61 63q37 61 48 103t13 123h-78z" />
    <glyph glyph-name="quotesinglbase" unicode="&#x201a;" horiz-adv-x="555" 
d="M180 0v262h201v-272q0 -213 -166 -318l-39 80q84 96 80 248h-76z" />
    <glyph glyph-name="quotedblleft" unicode="&#x201c;" horiz-adv-x="980" 
d="M618 934v221q0 176 134 322l57 -54q-63 -100 -66 -235h74v-254h-199zM164 934v215q0 203 127 328l63 -56q-45 -67 -58 -111t-13 -120h82v-256h-201z" />
    <glyph glyph-name="quotedblright" unicode="&#x201d;" horiz-adv-x="980" 
d="M616 1221v256h201v-230q0 -176 -127 -313l-59 57q39 63 52 107t17 123h-84zM164 1221v256h201v-244q0 -170 -134 -299l-59 55q39 57 52 103t16 129h-76z" />
    <glyph glyph-name="quotedblbase" unicode="&#x201e;" horiz-adv-x="980" 
d="M621 0v262h198v-272q0 -211 -164 -318l-39 80q55 72 69 119q13 47 11 129h-75zM168 0v262h201v-272q0 -201 -164 -318l-41 80q53 70 68 118t12 130h-76z" />
    <glyph glyph-name="dagger" unicode="&#x2020;" horiz-adv-x="980" 
d="M442 973l-34 508h176l-37 -512l387 39v-174l-389 30l49 -1206h-213l59 1206l-393 -33v177z" />
    <glyph glyph-name="daggerdbl" unicode="&#x2021;" horiz-adv-x="980" 
d="M438 1016l-35 467h179l-41 -467l368 35v-179l-368 39l22 -333l-22 -355l368 35v-178l-368 39l39 -471h-181l39 469l-366 -37v178l366 -35l-24 342l26 346l-368 -39v179z" />
    <glyph glyph-name="bullet" unicode="&#x2022;" horiz-adv-x="716" 
d="M104 718q0 105 75 179t179 74t180 -74t74 -179q0 -105 -74 -179t-180 -74q-104 0 -179 74t-75 179z" />
    <glyph glyph-name="ellipsis" unicode="&#x2026;" horiz-adv-x="1748" 
d="M1358 0v258h201v-258h-201zM774 0v258h201v-258h-201zM190 0v260h201v-260h-201z" />
    <glyph glyph-name="perthousand" unicode="&#x2030;" horiz-adv-x="2134" 
d="M274 -86l807 1604h103l-803 -1604h-107zM1726 31q138 -1 138 273t-135 274q-63 0 -99 -66t-35 -182q0 -299 131 -299zM2017 302q-1 -170 -81 -278t-207 -108t-208 109t-81 279t81 281q81 109 207 109t207 -112q82 -112 82 -280zM1058 31q134 -1 134 273t-135 274
q-61 0 -97 -66t-36 -182q0 -299 134 -299zM1348 302q0 -170 -81 -278t-209 -108t-208 109t-80 281t81 280t207 108t208 -112t82 -280zM406 852q61 0 95 69t34 193q0 283 -127 283q-64 0 -100 -68t-36 -188q1 -289 134 -289zM692 1124q0 -172 -80 -280t-207 -109
q-128 0 -209 108q-81 107 -81 281t80 282t209 108q128 0 208 -110q80 -108 80 -280z" />
    <glyph glyph-name="guilsinglleft" unicode="&#x2039;" horiz-adv-x="661" 
d="M106 567l271 500h178l-270 -498l270 -497h-178z" />
    <glyph glyph-name="guilsinglright" unicode="&#x203a;" horiz-adv-x="661" 
d="M285 1067l270 -500l-270 -495h-179l271 497l-271 498h179z" />
    <glyph glyph-name="fraction" unicode="&#x2044;" horiz-adv-x="448" 
d="M-322 -186l984 1714h110l-981 -1714h-113z" />
    <glyph glyph-name="Euro" unicode="&#x20ac;" horiz-adv-x="1153" 
d="M674 -33q-320 0 -436 362q-27 81 -41 175h-160l26 127h121v26q0 35 4 97h-147l27 127h135q41 248 166 391t303 143q102 0 182 -39t122 -96q73 -99 89 -180l-131 -56q-25 90 -88 159t-174 69t-188 -106t-101 -285h631l-27 -127h-614l-2 -62l2 -61h555l-27 -127h-518
q16 -121 54 -205t84 -121q81 -65 165 -65q84 -1 155 65t109 152l119 -84q-121 -279 -395 -279z" />
    <glyph glyph-name="afii61289" unicode="&#x2113;" horiz-adv-x="880" 
d="M352 1051v-396q256 313 256 553q0 193 -119 193q-57 0 -97 -83t-40 -267zM504 -25q-154 -1 -229 101t-78 266v27q-84 -74 -101 -88l-47 94q129 119 148 139v539q0 247 83 361q84 114 200 114t173 -89t58 -235q0 -330 -359 -715v-81q2 -154 52 -227t133 -72q133 0 233 178
l72 -68q-119 -244 -338 -244z" />
    <glyph glyph-name="trademark" unicode="&#x2122;" horiz-adv-x="2048" 
d="M1126 662h-125v815h201l205 -652l199 652h196v-815h-125v684l-209 -684h-122l-220 694v-694zM643 662h-135v694h-264v121h665v-121h-266v-694z" />
    <glyph glyph-name="Omega" unicode="&#x2126;" horiz-adv-x="1253" 
d="M336 139v6q-231 252 -232 615q0 289 150 473t380 184t370 -190t141 -455q0 -198 -68 -362t-166 -265v-6h258v-139h-432v102q102 82 172 248t70 385q0 299 -156 455q-82 82 -194 82q-164 0 -261 -153q-98 -153 -98 -375t73 -394t171 -248v-102h-434v139h256z" />
    <glyph glyph-name="estimated" unicode="&#x212e;" horiz-adv-x="1744" 
d="M1380 723v395q0 29 -18 47q-211 207 -492 207t-487 -213q-20 -18 -21 -49v-387q0 -14 13 -14h997q8 0 8 14zM1675 672h-1300q-12 0 -13 -10v-394q0 -27 19 -45q205 -215 491 -215q154 0 288 65t231 177h116q-109 -129 -277 -205t-360 -76q-332 0 -568 211t-234 511
q0 300 235 512q237 212 569 212t568 -212t235 -513v-18z" />
    <glyph glyph-name="partialdiff" unicode="&#x2202;" horiz-adv-x="993" 
d="M440 121h2q115 0 190 147t93 357q-23 72 -85 131t-158 59t-170 -113q-72 -113 -72 -261t54 -234t146 -86zM901 802q0 -376 -124 -600t-351 -225q-166 1 -257 135t-91 344t113 355q114 143 272 143q100 0 173 -52t103 -111h2q2 20 2 77q0 236 -93 394q-94 158 -228 158
t-236 -95l-51 129q129 106 313 106t318 -190q135 -192 135 -568z" />
    <glyph glyph-name="Delta" unicode="&#x2206;" horiz-adv-x="1153" 
d="M219 137h707l-236 715q-12 47 -56 181t-56 186h-7q-8 -45 -49 -170t-53 -168zM55 0v109l432 1321h189l420 -1317v-113h-1041z" />
    <glyph glyph-name="product" unicode="&#x220f;" horiz-adv-x="1261" 
d="M1210 1241h-186v-1434h-162v1434h-465v-1434h-161v1434h-187v156h1161v-156z" />
    <glyph glyph-name="summation" unicode="&#x2211;" horiz-adv-x="991" 
d="M950 -193h-907v115l469 680l-449 674v121h859v-146h-641v-6l415 -614l-454 -656v-8h708v-160z" />
    <glyph glyph-name="minus" unicode="&#x2212;" horiz-adv-x="1366" 
d="M135 588v157h1096v-157h-1096z" />
    <glyph glyph-name="uni2215" unicode="&#x2215;" horiz-adv-x="448" 
d="M-322 -186l984 1714h110l-981 -1714h-113z" />
    <glyph glyph-name="uni2219" unicode="&#x2219;" horiz-adv-x="555" 
d="M178 444v258h199v-258h-199z" />
    <glyph glyph-name="radical" unicode="&#x221a;" horiz-adv-x="1046" 
d="M1044 1667l-399 -1960h-137l-281 916l-135 -52l-31 103l269 104l211 -696q29 -133 32 -160h5q6 49 24 162l324 1583h118z" />
    <glyph glyph-name="infinity" unicode="&#x221e;" horiz-adv-x="1445" 
d="M1065 776h-2q-73 0 -151 -67t-130 -131q100 -115 158 -159t135 -44q76 0 124 60t48 145q0 84 -50 140t-132 56zM389 375h2q53 0 102 29q71 42 121 100q50 59 56 63q-131 166 -206 194q-40 15 -85 15q-84 0 -133 -59t-49 -145t54 -141q54 -56 138 -56zM1352 582v-2
q0 -134 -86 -220t-188 -86t-178 50q-77 50 -175 168q-90 -106 -169 -162q-78 -56 -188 -56t-193 85t-83 214t84 215t196 86t193 -56q80 -56 166 -161q109 121 179 169t178 48t186 -80t78 -212z" />
    <glyph glyph-name="integral" unicode="&#x222b;" horiz-adv-x="688" 
d="M547 1585q-139 0 -139 -401q0 -156 12 -491t12 -505q0 -276 -76 -403q-61 -111 -198 -111q-70 0 -123 29l26 125q109 -53 164 27q55 81 55 291t-12 552t-12 502q0 317 100 428q70 82 187 82q61 1 102 -24l-24 -119q-27 18 -74 18z" />
    <glyph glyph-name="approxequal" unicode="&#x2248;" horiz-adv-x="1009" 
d="M690 287q-76 0 -196 72q-120 71 -176 71t-94 -36t-79 -105l-67 53q41 86 107 136q67 50 134 50t121 -23q53 -23 75 -38q21 -14 69 -42q63 -36 113 -36q50 -1 87 33t80 106l64 -55q-86 -186 -238 -186zM322 754q-60 0 -98 -36t-79 -104l-67 54q88 186 252 186
q77 0 135 -37q14 -8 37 -20q24 -13 30 -17t24 -14t32 -20q15 -10 31 -16t32 -11q16 -6 56 -6q77 0 157 141l64 -55q-84 -186 -238 -187q-49 0 -91 16t-116 60q-101 66 -161 66z" />
    <glyph glyph-name="notequal" unicode="&#x2260;" horiz-adv-x="1009" 
d="M915 805v-107h-309l-117 -264h426v-104h-464l-95 -213l-82 35l80 178h-262v104h301l117 264h-418v107h457l92 209l84 -33l-80 -176h270z" />
    <glyph glyph-name="lessequal" unicode="&#x2264;" horiz-adv-x="1009" 
d="M918 20h-826v109h826v-109zM911 205l-809 426v110l809 426v-127l-702 -350v-4l702 -354v-127z" />
    <glyph glyph-name="greaterequal" unicode="&#x2265;" horiz-adv-x="1009" 
d="M915 20h-821v109h821v-109zM104 1167l809 -426v-110l-809 -426v127l701 352v4l-701 352v127z" />
    <glyph glyph-name="lozenge" unicode="&#x25ca;" horiz-adv-x="1046" 
d="M799 692l-238 527q-12 29 -35 114h-4q-14 -61 -37 -114l-237 -519l239 -530q23 -55 31 -111h8q18 80 33 109zM948 696l-360 -780h-135l-355 780l363 783h133z" />
    </font>
</defs>
</svg>
